<svg width="20" height="20" viewBox="0 0 20 20" fill="none" xmlns="http://www.w3.org/2000/svg">
<path d="M6.66675 15C4.30972 15 3.13121 15 2.39898 14.2677C1.66675 13.5355 1.66675 12.357 1.66675 10C1.66675 7.64297 1.66675 6.46447 2.39898 5.73223C3.13121 5 4.30972 5 6.66675 5C9.02375 5 10.2022 5 10.9345 5.73223C11.6667 6.46447 11.6667 7.64297 11.6667 10" stroke="white" stroke-width="2" stroke-linecap="round" stroke-linejoin="round"/>
<path d="M8.33325 10C8.33325 12.357 8.33325 13.5355 9.0655 14.2677C9.79775 15 10.9763 15 13.3333 15C15.6903 15 16.8688 15 17.601 14.2677C17.8508 14.0179 18.0154 13.7162 18.1238 13.3333M18.3333 10C18.3333 7.64297 18.3333 6.46447 17.601 5.73223C16.8688 5 15.6903 5 13.3333 5" stroke="white" stroke-width="2" stroke-linecap="round" stroke-linejoin="round"/>
</svg>
