<svg width="766" height="1009" viewBox="0 0 766 1009" fill="none" xmlns="http://www.w3.org/2000/svg">
<path fill-rule="evenodd" clip-rule="evenodd" d="M419.811 1.52884C419.279 2.38315 424.169 2.77411 430.673 2.3997C444.872 1.58055 446.382 2.99337 448.146 18.7495C449.627 31.9758 448.181 34.7601 436.498 41.185C425.503 47.2314 420.872 46.6274 406.373 37.2569C392.433 28.2462 391.36 25.4682 397.757 14.9744C400.011 11.2759 401.281 8.25163 400.578 8.25163C396.95 8.25163 384.773 17.8104 374.605 28.6434C367.974 35.7075 357.149 44.1658 348.922 48.7104C328.4 60.0502 309.031 72.7863 281.958 92.7437C211.389 144.766 217.277 140.717 75.8379 234.435C20.9072 270.831 5.34565 288.739 0.994046 320.564C-2.55094 346.493 3.26085 370.308 20.4397 400.242C30.2536 417.345 31.7427 422.694 40.0158 470.573C65.3436 617.179 81.174 704.586 88.3446 737.416C90.084 745.38 93.9392 763.066 96.9113 776.718C105.571 816.497 117.654 857.938 126.735 879.025C153.004 940.012 194.436 993.362 254.553 1043.61C296.361 1078.56 335.387 1103.52 392.843 1132.09C437.354 1154.21 434.311 1153.38 448.7 1147.31C544.857 1106.74 628.231 1050.11 683.695 987.711C715.964 951.405 745.697 902.269 760.675 860.495C775.201 819.988 792.229 740.932 807.35 643.814C808.456 636.704 810.28 625.069 811.401 617.957C812.524 610.847 815.809 588.739 818.7 568.829C821.589 548.919 824.861 526.813 825.966 519.701C827.072 512.591 828.868 500.956 829.956 493.844C837.482 444.683 841.285 428.341 849.96 407.906L859 386.612V335.281V283.952L850.729 274.553C840.93 263.418 821.304 249.873 736.973 196.031C575.122 92.6961 514.506 52.9013 511.753 48.1664C508.409 42.4179 509.194 47.4362 513.602 59.9654C518.483 73.8433 518.799 84.4198 514.518 90.5324C509.912 97.1104 503.217 96.2271 493.292 87.7295C485.527 81.0832 484.646 79.3829 484.646 71.0446C484.646 65.9394 485.697 59.7296 486.979 57.2432C490.146 51.1161 499.345 43.5825 503.778 43.4915C508.959 43.3839 508.328 41.094 500.187 30.4306C490.617 17.8952 470.63 4.02765 462.351 4.17865C460.394 4.21589 464.322 6.99188 471.081 10.3512C483.811 16.6768 499.124 29.8639 499.124 34.4995C499.124 35.9578 495.43 39.5985 490.915 42.5854L482.704 48.0195L470.75 41.3029C464.173 37.6064 458.156 33.5893 457.379 32.3771C454.433 27.7808 453.203 10.2168 455.623 7.3001C457.517 5.01642 457.151 3.93456 453.892 2.19078C449.219 -0.312171 421.292 -0.854131 419.811 1.52884ZM405.019 6.18308C403.507 8.63018 405.532 8.63018 411.223 6.18308C415.211 4.46825 415.197 4.39999 410.828 4.25933C408.336 4.18072 405.722 5.04538 405.019 6.18308ZM401.772 41.7229C409.246 46.4805 416.524 51.7781 417.945 53.495C422.009 58.4057 421.277 79.3725 416.911 83.098C411.732 87.5164 381.927 103.405 378.816 103.405C377.381 103.405 371.753 99.0176 366.309 93.658C357.072 84.5563 356.417 83.218 356.46 73.4896C356.508 62.3339 361.716 48.4374 367.703 43.4811C370.812 40.9078 384.458 33.7755 387.294 33.2418C387.784 33.1487 394.299 36.9673 401.772 41.7229ZM432.758 94.384C449.064 103.763 449.486 104.437 449.486 121.056C449.486 137.95 449.53 137.888 432.191 144.937C424.2 148.187 419.457 151.468 418.28 154.562C416.007 160.543 412.495 160.468 399.151 154.155C381.538 145.821 379.166 142.621 379.166 127.193C379.166 119.182 380.191 112.991 381.751 111.594C385.159 108.539 418.957 89.3761 421.383 89.1216C422.421 89.0141 427.54 91.3805 432.758 94.384ZM495.343 97.8095C503.757 104.214 504.332 105.304 504.901 115.916C505.496 127.067 505.37 127.342 494.56 138.235C482.245 150.64 477.896 151.265 463.397 142.71L455.691 138.161V121.865C455.691 104.028 455.176 104.834 472.94 94.8888C482.196 89.7091 485.223 90.1042 495.343 97.8095ZM565.033 123.056C568.003 128.089 570.797 130.296 574.202 130.296C581.621 130.296 582.152 132.307 576.109 137.505C571.118 141.799 570.859 142.73 573.215 147.904C576.696 155.541 574.81 156.722 566.375 152.179C559.873 148.675 559.079 148.644 555.968 151.753C550.479 157.243 548.105 155.83 549.401 147.846C550.396 141.715 549.788 140.051 545.536 137.265C538.711 132.791 539.19 130.683 547.211 129.909C552.52 129.398 554.553 127.849 556.89 122.539C558.518 118.843 560.055 115.816 560.307 115.816C560.557 115.816 562.686 119.074 565.033 123.056ZM312.982 121.608C312.982 126.98 317.085 130.296 323.736 130.296C330.868 130.296 331.145 132.898 324.481 137.265C320.229 140.051 319.621 141.715 320.615 147.846C321.916 155.863 319.536 157.241 313.976 151.681C310.771 148.477 310.144 148.477 304.719 151.681C296.601 156.478 295.794 156.085 297.296 148.073C298.421 142.085 297.798 140.384 293.147 136.725C287.557 132.327 288.156 131.372 297.453 129.874C299.72 129.51 302.795 126.664 304.289 123.549C307.341 117.177 312.982 115.918 312.982 121.608ZM501.31 162.251C529.59 167.816 555.877 175.295 592.196 188.112C623.277 199.08 662.516 217.109 662.516 220.423C662.516 221.861 663.68 223.515 665.101 224.103C672.559 227.181 649.734 221.943 625.288 214.968C583.358 203.006 546.731 195.079 500.158 187.893C475.008 184.01 401.867 184.629 371.927 188.975C344.539 192.953 293.778 203.796 263.343 212.174C230.746 221.145 215.774 223.493 215.774 219.631C215.774 214.341 300.016 184.227 349.246 171.917C390.071 161.711 402.973 160.187 422.899 163.221C438.597 165.61 441.598 165.478 455.691 161.782C475.819 156.503 471.885 156.461 501.31 162.251ZM516.704 210.601C523.53 211.743 536.56 213.739 545.66 215.038C610.442 224.279 684.95 246.176 765.929 279.774C809.23 297.739 821.532 305.98 830.092 322.764C835.498 333.362 835.544 351.191 830.193 361.68C825.397 371.084 811.519 384.037 801.962 388.031C787.304 394.156 777.947 392.231 740.076 375.295C717.445 365.176 666.328 345.955 629.985 333.899C583.486 318.474 529.267 306.448 490.349 302.923C477.985 301.804 476.754 301.309 479.49 298.573C481.968 296.095 482.578 289.018 482.578 262.758C482.578 228 482.437 227.518 472.289 227.518C466.967 227.518 466.032 231.465 466.032 253.958C466.032 265.296 465.263 273.008 464.241 271.888C463.257 270.809 459.674 264.804 456.278 258.546C452.882 252.289 447.412 242.749 444.123 237.344C438.365 227.886 437.78 227.518 428.518 227.518H418.897L417.865 236.309C417.298 241.146 416.967 257.808 417.13 273.336L417.428 301.574L397.78 302.892C386.973 303.618 373.943 305.037 368.824 306.044C363.705 307.054 353.468 308.957 346.074 310.275C307.087 317.223 236.622 338.316 194.057 355.783C191.782 356.716 182.475 360.456 173.375 364.094C164.274 367.733 153.106 372.358 148.556 374.373C114.87 389.291 110.109 390.932 100.638 390.888C80.5183 390.797 62.1667 376.925 54.2536 355.832C49.3291 342.705 49.8917 335.354 56.8906 321.335C65.964 303.167 80.5307 295 167.17 259.516C212.882 240.796 295.461 218.963 340.675 213.646L350.787 212.457L346.988 218.89C342.446 226.579 344.082 229.09 351.451 225.733C354.504 224.341 359.892 223.846 363.869 224.591C371.687 226.06 372.487 224.508 367.55 217.461C363.06 211.048 365.465 209.294 380.2 208.241C401.958 206.684 503.821 208.444 516.704 210.601ZM354.069 233.035C350.808 233.904 347.075 242.269 342.222 259.581C340.946 264.131 338.047 273.905 335.778 281.3C329.286 302.466 329.395 305.089 336.766 305.089C342.03 305.089 343.581 303.777 346.994 296.434C351.445 286.856 354.332 285.508 370.473 285.466C380.498 285.44 381.724 285.965 384.95 291.649C388.864 298.55 393.623 300.859 399.848 298.883C405.405 297.119 404.833 292.44 397.693 281.3C394.411 276.181 390.251 269.392 388.45 266.216C370.723 234.959 365.561 229.976 354.069 233.035ZM504.009 234.758C502.045 239.878 504.876 244.066 510.301 244.066C513.106 244.066 517.885 245.012 520.924 246.166C525.366 247.856 526.206 249.213 525.225 253.123C524.555 255.793 523.056 264.39 521.894 272.226C520.729 280.061 519.192 290.427 518.477 295.263L517.176 304.054H525.73C530.435 304.054 534.287 303.821 534.291 303.537C534.334 299.702 542.723 253.745 543.654 252.239C544.355 251.106 549.747 250.431 555.635 250.742C565.798 251.277 566.373 251.033 566.967 245.924C567.552 240.889 566.814 240.391 555.592 238.233C518.239 231.049 505.755 230.209 504.009 234.758ZM582.646 246.526C581.732 248.007 580.291 253.412 579.445 258.538C578.599 263.662 576.934 272.509 575.747 278.198C574.557 283.886 573 293.761 572.289 300.143C571 311.667 571.033 311.754 576.94 312.889C580.212 313.516 583.916 313.181 585.17 312.145C586.425 311.106 589.025 301.647 590.946 291.124C592.868 280.601 595.414 268.173 596.603 263.505C600.016 250.121 598.531 245.215 590.839 244.468C587.087 244.104 583.602 244.979 582.646 246.526ZM263.681 250.901C261.304 253.764 262.214 261.324 267.596 283.369C268.568 287.351 269.974 293.145 270.721 296.248C272.597 304.032 280.762 311.644 288.87 313.164C300.02 315.258 325.391 309.151 325.391 304.377C325.391 303.496 324.229 301.196 322.806 299.266C320.661 296.353 318.988 296.109 312.996 297.836C302.204 300.945 293.337 300.36 289.691 296.297C287.906 294.305 284.979 285.696 283.192 277.163C277.67 250.826 277.035 249.3 271.302 248.615C268.438 248.274 265.006 249.302 263.681 250.901ZM367.033 259.723C368.99 263.058 370.659 266.907 370.742 268.279C370.901 270.894 357.114 274.414 354.998 272.3C352.994 270.294 358.874 252.126 361.269 252.924C362.483 253.329 365.077 256.389 367.033 259.723ZM450.566 275.529C457.366 287.146 463.24 297.385 463.618 298.283C464.601 300.608 433.432 300.321 431.995 297.992C431.339 296.932 431.751 295.482 432.907 294.767C434.09 294.034 435.008 284.935 435.008 273.938C435.008 263.196 435.728 254.409 436.605 254.409C437.484 254.409 443.765 263.914 450.566 275.529ZM223.013 261.446C215.05 264.123 204.041 267.582 198.549 269.135C186.86 272.439 183.881 275.306 185.817 281.404C186.843 284.641 188.429 285.566 191.674 284.825C210.165 280.597 209.337 280.56 211.321 285.711C215.381 296.262 221.978 318.205 221.978 321.161C221.978 322.878 223.619 326.308 225.623 328.784C228.773 332.673 230.069 332.981 235.153 331.047C240.309 329.088 240.913 327.981 240.028 322.121C239.472 318.441 236.934 308.916 234.388 300.952C231.842 292.988 229.329 283.677 228.804 280.26C227.921 274.507 228.514 273.818 236.806 270.951C244.156 268.411 245.763 266.926 245.763 262.683C245.763 255.692 240.917 255.429 223.013 261.446ZM621.134 266.351C610.142 277.345 605.703 295.795 610.818 309.246C614.737 319.558 623.499 325.094 643.647 329.992C656.535 333.126 659.041 333.238 660.638 330.755C664.423 324.868 661.252 321.898 645.97 317.018C629.213 311.667 625.288 308.394 625.288 299.775C625.288 293.352 630.512 279.917 634.601 275.827C638.21 272.219 650.622 272.286 662.791 275.98C669.848 278.121 672.981 278.28 674.684 276.578C677.796 273.465 677.594 269.892 674.138 267.025C669.85 263.465 649.106 258.546 638.388 258.546C630.214 258.546 627.883 259.601 621.134 266.351ZM697.676 285.773C688.419 291.964 679.062 310.022 679.062 321.701C679.062 337.886 691.387 349.751 713.544 354.901C722.791 357.051 725.997 357.026 731.41 354.757C745.074 349.031 754.249 333.629 754.431 316.106C754.58 301.738 750.483 295.422 736.133 287.907C721.755 280.376 706.975 279.555 697.676 285.773ZM136.975 292.663C132.127 295.298 131.466 297.152 130.254 311.51C129.513 320.268 128.907 337.168 128.907 349.064V370.697L134.582 369.272C143.11 367.131 145.17 364.557 145.859 355.181C146.469 346.904 146.862 346.48 158.558 341.501C166.605 338.074 171.505 337.011 173.261 338.308C185.575 347.401 186.016 347.558 192.68 345.235C196.28 343.98 199.228 341.758 199.228 340.298C199.228 338.839 194.806 333.697 189.403 328.873C184.001 324.047 172.311 313.233 163.428 304.836C154.545 296.442 146.169 289.612 144.814 289.657C143.459 289.703 139.931 291.056 136.975 292.663ZM728.551 298.807C735.068 302.176 736.973 305.711 736.973 314.432C736.973 329.322 727.722 341.288 716.21 341.288C704.349 341.288 697.676 334.868 697.676 323.453C697.676 302.213 712.406 290.456 728.551 298.807ZM150.624 313.911C151.761 314.747 154.479 317.541 156.661 320.119C160.576 324.74 160.576 324.848 156.661 327.81C149.424 333.287 145.962 331.717 145.089 322.564C144.119 312.399 145.542 310.177 150.624 313.911ZM546.764 327.326C546.804 328.749 546.785 351.321 546.723 377.488C546.632 415.471 546.032 425.499 543.749 427.216C541.978 428.546 518.531 429.63 482.26 430.056C450.016 430.435 414.326 431.328 402.95 432.042L382.268 433.339L381.722 498.738C381.298 549.562 381.759 564.564 383.79 566.049C385.348 567.187 416.953 567.489 461.896 566.793C503.416 566.15 538.849 566.289 540.636 567.102C543.484 568.395 543.792 574.3 543.122 614.728C542.704 640.111 541.956 662.834 541.463 665.221C540.657 669.125 538.653 669.7 521.596 670.91C511.161 671.65 476.357 672.256 444.251 672.256C399.894 672.256 385.443 672.877 384.071 674.842C383.081 676.265 382.316 684.409 382.371 692.942C382.429 701.475 382.661 731.167 382.888 758.925L383.302 809.393L459.662 808.301C512.81 807.542 536.698 807.885 538.249 809.437C541.07 812.258 538.797 907.914 535.817 911.691C534.249 913.679 515.467 914.277 454.562 914.277H375.346L368.965 908.907C360.69 901.942 349.362 878.073 345.008 858.426C340.506 838.098 338.256 741.22 337.759 546.075C337.428 416.337 337.772 398.424 340.87 383.776C346.93 355.123 356.059 336.779 367.358 330.551C375.519 326.051 389.335 325.296 468.617 325.017C529.813 324.8 546.708 325.298 546.764 327.326ZM322.289 389.862V447.688L314.016 449.12C309.465 449.908 292.247 452.56 275.753 455.013C259.259 457.466 241.11 460.253 235.422 461.206C219.945 463.802 199.085 467.156 170.396 471.661C156.245 473.885 143.782 476.588 142.696 477.674C141.447 478.924 141.668 489.721 143.298 507.172C144.715 522.311 146.359 542.36 146.955 551.724C147.608 562.013 149.106 569.638 150.74 570.995C152.227 572.228 159.325 574.098 166.512 575.146C245.004 586.61 285.137 593.954 293.021 598.291C308.555 606.839 321.182 640.153 325.308 683.476C328.593 717.969 328.001 902.118 324.56 916.346C317.536 945.392 304.527 957.992 291.209 948.65C286.038 945.024 256.568 914.656 215.697 870.837C198.187 852.065 175.358 827.863 164.963 817.055C138.667 789.713 123.501 772.767 120.787 767.697C118.491 763.405 112.361 722.284 112.361 711.174C112.361 707.221 113.422 705.353 115.664 705.353C117.48 705.353 152.616 730.586 193.741 761.428C234.866 792.268 269.801 818.013 271.37 818.638C273.78 819.595 274.007 810.883 272.824 763.08C272.053 731.899 270.957 703.965 270.388 701.005C269.159 694.605 266.628 693.397 197.159 666.047C139.265 643.251 135.319 641.342 123.41 630.364C104.276 612.726 94.2763 588.209 88.6031 545.041C86.8099 531.388 84.4708 514.633 83.4056 507.807C77.8668 472.319 79.0747 456.821 88.9547 436.553C91.9764 430.358 98.2536 421.484 102.905 416.832C113.298 406.437 117.631 404.603 215.774 369.079C259.246 353.344 271.24 348.853 297.47 338.5C307.707 334.46 317.48 331.353 319.186 331.595C321.858 331.976 322.289 340.037 322.289 389.862ZM664.584 363.531C746.905 399.408 753.236 402.35 762.967 409.209C780.562 421.612 792.816 447.889 792.816 473.214C792.816 483.222 787.85 520.605 782.588 550.212C780.632 561.233 779.85 566.113 773.314 608.131C771.635 618.94 768.34 639.884 765.993 654.674C760.39 689.982 758.394 702.979 755.511 722.936C754.195 732.038 751.813 746.801 750.216 755.743C748.619 764.688 747.314 772.486 747.314 773.076C747.314 775.525 711.182 810.849 708.677 810.849C705.387 810.849 705.074 798.347 707.856 778.15C708.905 770.535 710.82 754.533 712.111 742.587C714.665 718.975 717.873 693.161 719.374 684.151C720.626 676.654 718.15 676.818 699.412 685.477C691.064 689.334 671.203 698.173 655.277 705.122C639.352 712.07 620.272 720.783 612.878 724.481C600.349 730.753 599.343 731.773 598.109 739.484C597.379 744.035 596.119 777.08 595.31 812.918C594.502 848.756 593.184 890.456 592.384 905.583L590.928 933.088L573.478 949.54C557.254 964.834 548.731 969.621 548.785 963.405C548.797 961.984 550.156 875.181 551.807 770.513C553.457 665.844 555.348 545.765 556.009 503.67C557.532 406.921 559.786 385.855 571.072 363.008C581.538 341.82 588.845 336.347 603.571 338.668C606.984 339.205 634.44 350.394 664.584 363.531ZM605.954 468.827C605.211 480.949 604.541 505.85 604.462 524.161C604.384 542.472 603.571 571.415 602.655 588.48C600.735 624.247 601.168 625.561 613.912 622.574C618.462 621.507 639.869 617.322 661.482 613.274C715.627 603.134 723.176 601.51 725.914 599.429C728.231 597.669 730.299 584.571 734.667 544.006C735.831 533.198 737.898 514.304 739.261 502.017C740.729 488.759 740.977 478.928 739.871 477.829C738.847 476.812 720.789 472.137 699.745 467.443C678.7 462.75 650.183 456.182 636.371 452.847C622.562 449.513 610.371 446.784 609.281 446.784C608.193 446.784 606.696 456.703 605.954 468.827ZM744.528 797.48C747.391 804.942 731.97 846.089 714.655 877.2C681.596 936.595 609.612 1009.28 535.447 1058.15C489.068 1088.72 443.219 1114.93 436.134 1114.93C433.269 1114.93 396.893 1096.73 381.234 1087.46C357.594 1073.46 319.6 1046.31 303.674 1032.02C275.372 1006.63 242.661 975.732 242.661 974.385C242.661 973.514 240.276 970.227 237.364 967.083C219.991 948.336 167.803 873.018 160.64 856.358C159.416 853.513 157.25 848.714 155.827 845.694C154.402 842.674 153.912 839.114 154.735 837.782C156.618 834.735 159.648 837.902 174.493 858.436C194.661 886.331 199.068 891.695 221.513 915.667C270.433 967.912 337.827 1014.2 413.292 1047.37C441.753 1059.88 441.29 1059.8 453.902 1054.86C473.122 1047.34 512.247 1029.46 520.282 1024.52C524.526 1021.91 528.489 1019.77 529.091 1019.77C530.808 1019.77 569.447 997.209 579.784 990.17C632.899 954.006 675.008 911.809 701.67 868.034C712.009 851.06 730.617 815.34 735.503 803.092C739.126 794.003 742.411 791.961 744.528 797.48ZM410.779 947.69C417.176 951.114 422.578 962.265 422.655 972.196C422.711 979.654 423.153 980.771 424.876 977.806C426.131 975.651 426.378 971.334 425.468 967.464C421.623 951.122 427.327 945.305 447.186 945.305C463.281 945.305 468.893 948.305 471.242 958.159C472.611 963.904 472.996 964.247 473.718 960.373C474.189 957.851 477.492 953.333 481.058 950.332C486.903 945.415 488.847 944.96 500.775 945.719C511.832 946.422 514.64 947.392 517.865 951.623C525.98 962.267 525.395 986.411 516.795 995.691C506.256 1007.07 481.174 1003.99 475.559 990.638L472.812 984.103L471.488 989.382C469.025 999.197 465.019 1001.16 447.418 1001.16C430.438 1001.16 426.351 999.377 423.629 990.801C421.923 985.423 419.927 985.58 417.401 991.293C414.359 998.173 406.609 1001.09 391.279 1001.13C380.479 1001.15 377.263 1000.44 376.249 997.791C374.005 991.943 378.998 988.745 390.38 988.745C400.218 988.745 406.053 986.281 406.053 982.125C406.053 981.215 403.027 980.464 399.331 980.458C386.758 980.437 377.563 976.654 375.346 970.591C373.631 965.898 373.261 967.435 373.124 979.784C373.035 987.94 372.396 996.084 371.705 997.884C370.45 1001.16 358.659 1002.67 358.303 999.605C357.619 993.668 357.455 949.968 358.111 947.891C359.149 944.598 367.223 944.532 370.479 947.788C371.844 949.153 372.961 952.152 372.961 954.454C372.961 958.397 373.155 958.36 376.328 953.828C383.087 944.178 398.94 941.352 410.779 947.69ZM389.778 960.493C386.535 964.402 388.946 965.991 398.125 965.991C403.523 965.991 406.053 965.07 406.053 963.109C406.053 957.677 393.755 955.7 389.778 960.493ZM439.397 959.533C434.62 962.648 438.913 965.991 447.691 965.991C454.481 965.991 455.869 965.331 455.308 962.371C454.541 958.316 444.113 956.457 439.397 959.533ZM489.964 960.966C486.065 964.868 485.527 982.593 489.197 986.263C490.562 987.628 494.636 988.745 498.253 988.745C503.61 988.745 505.304 987.595 507.401 982.527C510.117 975.971 508.975 965.213 505.064 960.499C501.941 956.736 493.947 956.984 489.964 960.966ZM469.652 967.174C468.799 968.041 468.1 971.106 468.1 973.99C468.1 977.755 468.731 978.599 470.344 976.985C471.577 975.752 472.276 972.685 471.896 970.169C471.515 967.656 470.504 966.307 469.652 967.174ZM438.111 982.539C435.741 986.374 439.341 988.745 447.54 988.745C454.311 988.745 455.691 988.046 455.691 984.608C455.691 981.17 454.311 980.471 447.54 980.471C443.056 980.471 438.814 981.401 438.111 982.539Z" fill="black" fill-opacity="0.36"/>
</svg>
